<?xml version="1.0" encoding="UTF-8" standalone="no"?>
<svg width="79px" height="22px" viewBox="0 0 79 22" version="1.1" xmlns="http://www.w3.org/2000/svg" xmlns:xlink="http://www.w3.org/1999/xlink">
    <!-- Generator: Sketch 3.8.2 (29753) - http://www.bohemiancoding.com/sketch -->
    <title>Ipreo_4c_Horiz_OL_Final</title>
    <desc>Created with Sketch.</desc>
    <defs>
        <polygon id="path-1" points="78.958288 17.2684286 0.01896 17.2684286 0.01896 0.0924785714 78.958288 0.0924785714 78.958288 8.68045357"></polygon>
    </defs>
    <g id="Page-1" stroke="none" stroke-width="1" fill="none" fill-rule="evenodd">
        <g id="Specs---Header-p2" transform="translate(-78.000000, -119.000000)">
            <g id="Ipreo_4c_Horiz_OL_Final" transform="translate(78.000000, 119.000000)">
                <path d="M24.6649664,18.2743109 L25.8663925,18.2743109 C26.2667627,18.2743109 26.3333333,18.3394419 26.3333333,18.7311537 L26.3333333,19.9717287 C26.3333333,20.3634405 26.2667627,20.4285714 25.8663925,20.4285714 L20.4167513,20.4285714 C19.9939805,20.4285714 19.9494949,20.3853566 19.9494949,19.9717287 L19.9494949,18.7311537 C19.9494949,18.3394419 20.0163811,18.2743109 20.4167513,18.2743109 L21.6178619,18.2743109 L21.6178619,7.65426049 L20.4167513,7.65426049 C20.0163811,7.65426049 19.9494949,7.58912953 19.9494949,7.19741774 L19.9494949,5.95684275 C19.9494949,5.54321485 19.9939805,5.5 20.4167513,5.5 L25.8663925,5.5 C26.2667627,5.5 26.3333333,5.56513096 26.3333333,5.95684275 L26.3333333,7.19741774 C26.3333333,7.58912953 26.2667627,7.65426049 25.8663925,7.65426049 L24.6649664,7.65426049 L24.6649664,18.2743109" id="Fill-1" fill-opacity="0.8" fill="#FFFFFF"></path>
                <path d="M33.8048338,12.0066137 C35.6616081,12.0066137 36.3155494,11.4192003 36.3155494,9.76530612 C36.3155494,8.22037508 35.7460069,7.71970012 34.0367809,7.71970012 L33.214042,7.71970012 L33.214042,12.0066137 L33.8048338,12.0066137 L33.8048338,12.0066137 Z M33.214042,19.9717287 C33.214042,20.3634405 33.1505932,20.4285714 32.7707984,20.4285714 L30.7661765,20.4285714 C30.3654317,20.4285714 30.3232323,20.3853566 30.3232323,19.9717287 L30.3232323,5.95684275 C30.3232323,5.54321485 30.3654317,5.5 30.7661765,5.5 L34.1846285,5.5 C35.8726051,5.5 36.8009923,5.67409413 37.497133,6.10932945 C38.4889689,6.74026632 39.1010101,8.04597228 39.1010101,9.591212 C39.1010101,12.5292047 37.2017371,14.4658476 34.2899774,14.4658476 L33.214042,14.4658476 L33.214042,19.9717287 L33.214042,19.9717287 Z" id="Fill-2" fill-opacity="0.8" fill="#FFFFFF"></path>
                <path d="M46.7524922,12.1739488 C48.7413261,12.1739488 49.4417778,11.5714286 49.4417778,9.875 C49.4417778,8.29033688 48.8317277,7.77678571 47.0009361,7.77678571 L46.1193608,7.77678571 L46.1193608,12.1739488 L46.7524922,12.1739488 L46.7524922,12.1739488 Z M53.3514842,19.9867655 C53.4194457,20.0985309 53.4646465,20.2321429 53.4646465,20.3217452 C53.4646465,20.433194 53.3742449,20.5224797 53.1030403,20.5892857 L51.0917662,21.1474797 C50.8882025,21.2142857 50.8882025,21.2142857 50.8205616,21.2142857 C50.7073994,21.2142857 50.639438,21.1474797 50.5041562,20.9021023 L47.3173415,14.5403369 L46.1193608,14.5403369 L46.1193608,20.3439083 C46.1193608,20.745694 46.0517199,20.8125 45.6445924,20.8125 L43.5653569,20.8125 C43.1361099,20.8125 43.0909091,20.7681738 43.0909091,20.2767857 L43.0909091,5.96859169 C43.0909091,5.54432624 43.1361099,5.5 43.5653569,5.5 L47.2493801,5.5 C48.9445693,5.5 49.803384,5.65609169 50.5945578,6.08035714 C51.8826195,6.79464286 52.5154303,8.06712259 52.5154303,9.89716312 C52.5154303,11.9507345 51.7697778,13.2232143 49.984187,14.1607143 L53.3514842,19.9867655 L53.3514842,19.9867655 Z" id="Fill-3" fill-opacity="0.8" fill="#FFFFFF"></path>
                <path d="M60.8762698,11.4408078 L64.0745272,11.4408078 C64.4192349,11.4408078 64.4765504,11.5062474 64.4765504,11.8979592 L64.4765504,13.3558432 C64.4765504,13.7478636 64.4192349,13.8129946 64.0745272,13.8129946 L60.8762698,13.8129946 L60.8762698,18.0566933 L64.8981314,18.0566933 C65.2428391,18.0566933 65.3004263,18.1221329 65.3004263,18.513536 L65.3004263,19.9717287 C65.3004263,20.3853566 65.2618538,20.4285714 64.8981314,20.4285714 L58.6548201,20.4285714 C58.2910977,20.4285714 58.2525253,20.3853566 58.2525253,19.9717287 L58.2525253,5.95684275 C58.2525253,5.54321485 58.2910977,5.5 58.6548201,5.5 L65.0513349,5.5 C65.3384555,5.5 65.4343434,5.56513096 65.4343434,5.73922509 C65.4343434,5.80466472 65.4150572,5.91331921 65.3960426,6.02228238 L65.013034,7.50208247 C64.9554469,7.78513976 64.8595589,7.87187815 64.5914529,7.87187815 L60.8762698,7.87187815 L60.8762698,11.4408078" id="Fill-4" fill-opacity="0.8" fill="#FFFFFF"></path>
                <g id="Group-10" transform="translate(0.000000, 4.714286)">
                    <mask id="mask-2" fill="white">
                        <use xlink:href="#path-1"></use>
                    </mask>
                    <g id="Clip-6"></g>
                    <path d="M71.138868,8.8085119 C71.138868,12.2207119 71.896004,13.9063571 73.433028,13.9063571 C74.970684,13.9063571 75.750256,12.2207119 75.750256,8.84913333 C75.750256,5.29461429 75.014924,3.66975714 73.410908,3.66975714 C71.940876,3.66975714 71.138868,5.47755476 71.138868,8.8085119 L71.138868,8.8085119 Z M77.309716,2.91840476 C78.423616,4.07597143 78.958288,5.9650119 78.958288,8.62557143 C78.958288,13.5816738 77.064816,16.1002024 73.366352,16.1002024 C69.73488,16.1002024 67.93052,13.6424619 67.93052,8.72726905 C67.93052,5.76190476 68.532184,3.95439524 69.890984,2.73546429 C70.849096,1.90258095 72.074544,1.4762 73.544576,1.4762 C75.014924,1.4762 76.463152,2.02473333 77.309716,2.91840476 L77.309716,2.91840476 Z" id="Fill-5" fill-opacity="0.8" fill="#FFFFFF" mask="url(#mask-2)"></path>
                    <polyline id="Fill-7" fill="#94DBFF" mask="url(#mask-2)" points="13.74916 1.60267381 11.837676 1.60267381 11.837676 15.775519 13.74916 15.775519 13.74916 17.2857143 9.671812 17.2857143 9.671812 0.0930547619 13.74916 0.0930547619 13.74916 1.60267381"></polyline>
                    <polyline id="Fill-8" fill="#94DBFF" mask="url(#mask-2)" points="0 15.775519 1.911484 15.775519 1.911484 1.60267381 0 1.60267381 0 0.0930547619 4.07798 0.0930547619 4.07798 17.2857143 0 17.2857143 0 15.775519"></polyline>
                    <polyline id="Fill-9" fill="#FFFFFF" mask="url(#mask-2)" points="7.972996 0.0924785714 5.670304 0.0924785714 5.670304 17.2854262 8.14332 17.2854262 8.14332 0.0924785714 7.972996 0.0924785714"></polyline>
                </g>
                <polyline id="Fill-11" fill="#EB8B2D" points="8.61290002 0 6.38383838 0 6.38383838 2.35714286 8.77777778 2.35714286 8.77777778 0 8.61290002 0"></polyline>
            </g>
        </g>
    </g>
</svg>